<?xml version="1.0" encoding="UTF-8" standalone="no"?>
<svg
   width="63.157177"
   height="16.140476"
   role="img"
   aria-label="Micro,Inc: 2023"
   version="1.1"
   id="svg71"
   sodipodi:docname="Micro.svg"
   inkscape:version="1.2.2 (732a01da63, 2022-12-09)"
   xmlns:inkscape="http://www.inkscape.org/namespaces/inkscape"
   xmlns:sodipodi="http://sodipodi.sourceforge.net/DTD/sodipodi-0.dtd"
   xmlns="http://www.w3.org/2000/svg"
   xmlns:svg="http://www.w3.org/2000/svg"
   xmlns:rdf="http://www.w3.org/1999/02/22-rdf-syntax-ns#"
   xmlns:cc="http://creativecommons.org/ns#"
   xmlns:dc="http://purl.org/dc/elements/1.1/">
  <defs
     id="defs75" />
  <sodipodi:namedview
     id="namedview73"
     pagecolor="#ffffff"
     bordercolor="#000000"
     borderopacity="0.25"
     inkscape:showpageshadow="2"
     inkscape:pageopacity="0.0"
     inkscape:pagecheckerboard="0"
     inkscape:deskcolor="#d1d1d1"
     showgrid="false"
     inkscape:zoom="9.0816325"
     inkscape:cx="28.739326"
     inkscape:cy="9.8000002"
     inkscape:window-width="956"
     inkscape:window-height="468"
     inkscape:window-x="-9"
     inkscape:window-y="0"
     inkscape:window-maximized="0"
     inkscape:current-layer="svg71" />
  <title
     id="title43">Micro Inc</title>
  <linearGradient
     id="s"
     x2="0"
     y2="44.271889"
     gradientTransform="scale(2.2135944,0.45175395)"
     x1="0"
     y1="0"
     gradientUnits="userSpaceOnUse">
    <stop
       offset="0"
       stop-color="#bbb"
       stop-opacity=".1"
       id="stop45" />
    <stop
       offset="1"
       stop-opacity=".1"
       id="stop47" />
  </linearGradient>
  <clipPath
     id="r">
    <rect
       width="98"
       height="20"
       rx="3"
       fill="#ffffff"
       id="rect50"
       x="0"
       y="0" />
  </clipPath>
  <g
     id="g858"
     transform="translate(-13.205729,-1.1058843)">
    <g
       fill="#ffffff"
       text-anchor="middle"
       font-family="Verdana, Geneva, 'DejaVu Sans', sans-serif"
       text-rendering="geometricPrecision"
       font-size="110px"
       id="g69"
       transform="matrix(-1,0,0,1,98,0)" />
    <g
       id="g778"
       transform="rotate(13.429893,21.996327,13.697766)">
      <g
         aria-label="µ"
         transform="scale(1.0065842,0.99345889)"
         id="text341"
         style="font-size:22.2358px;font-family:'Century Gothic';-inkscape-font-specification:'Century Gothic';stroke-width:1.85298">
        <path
           d="M 14.094366,18.966942 V 2.8329585 h 1.530883 V 9.347353 q 0,1.476596 0.358292,2.204037 0.369149,0.727441 1.183448,1.226877 0.814299,0.48858 1.758887,0.48858 0.944587,0 1.693742,-0.466865 0.760013,-0.477722 1.161734,-1.302879 0.412578,-0.836014 0.412578,-2.2908952 V 2.8329585 h 1.520025 V 14.645727 H 22.19393 v -1.281164 q -0.640582,0.803442 -1.454881,1.183448 -0.803442,0.369149 -1.824031,0.369149 -1.020588,0 -1.845745,-0.369149 -0.814299,-0.380006 -1.444024,-1.150876 v 5.569807 z"
           id="path417" />
      </g>
      <path
         d="M 14.207975,18.640068 V 2.6116186 h 1.540963 v 6.471783 q 0,1.4669374 0.36065,2.1896194 0.37158,0.722683 1.191241,1.218853 0.819661,0.485384 1.770467,0.485384 0.950807,0 1.704895,-0.463811 0.765017,-0.474598 1.169383,-1.294357 0.415294,-0.830545 0.415294,-2.2759104 v -6.331561 h 1.530034 V 14.347119 h -1.530034 v -1.272785 q -0.644799,0.798187 -1.464461,1.175708 -0.808732,0.366734 -1.83604,0.366734 -1.027307,0 -1.857897,-0.366734 -0.819661,-0.377521 -1.453532,-1.143349 v 5.533375 z"
         id="path420"
         style="font-size:22.2358px;font-family:'Century Gothic';-inkscape-font-specification:'Century Gothic';fill:#000080;stroke-width:1.85298" />
    </g>
    <g
       id="g784"
       transform="translate(3.0831461,-1.541573)">
      <text
         xml:space="preserve"
         style="font-style:normal;font-variant:normal;font-weight:normal;font-stretch:normal;font-size:16.0357px;font-family:'Century Gothic';-inkscape-font-specification:'Century Gothic';fill:#000000;stroke-width:1.33631"
         x="30.323843"
         y="16.436453"
         id="text477"><tspan
           sodipodi:role="line"
           id="tspan475"
           x="30.323843"
           y="16.436453"
           style="fill:#000000;stroke-width:1.33631">Micro</tspan></text>
      <text
         xml:space="preserve"
         style="font-style:normal;font-variant:normal;font-weight:normal;font-stretch:normal;font-size:16.0357px;font-family:'Century Gothic';-inkscape-font-specification:'Century Gothic';fill:#000080;stroke-width:1.33631"
         x="30.450033"
         y="16.254332"
         id="text477-7"><tspan
           sodipodi:role="line"
           id="tspan475-7"
           x="30.450033"
           y="16.254332"
           style="fill:#000080;stroke-width:1.33631">Micro</tspan></text>
    </g>
  </g>
  <metadata
     id="metadata786">
    <rdf:RDF>
      <cc:Work
         rdf:about="">
        <dc:title>Micro Inc</dc:title>
      </cc:Work>
    </rdf:RDF>
  </metadata>
</svg>
